IKResults
version=1
nRows=10
nColumns=40
inDegrees=yes

Units are S.I. units (second, meters, Newtons, ...)
Angles are in degrees.

endheader
time	pelvis_tilt	pelvis_list	pelvis_rotation	pelvis_tx	pelvis_ty	pelvis_tz	hip_flexion_r	hip_adduction_r	hip_rotation_r	knee_angle_r	knee_angle_r_beta	ankle_angle_r	subtalar_angle_r	mtp_angle_r	hip_flexion_l	hip_adduction_l	hip_rotation_l	knee_angle_l	knee_angle_l_beta	ankle_angle_l	subtalar_angle_l	mtp_angle_l	lumbar_extension	lumbar_bending	lumbar_rotation	arm_flex_r	arm_add_r	arm_rot_r	elbow_flex_r	pro_sup_r	wrist_flex_r	wrist_dev_r	arm_flex_l	arm_add_l	arm_rot_l	elbow_flex_l	pro_sup_l	wrist_flex_l	wrist_dev_l
      0.00000000	     18.65702607	      0.98632641	      0.47563254	     -1.23899427	      0.95873610	     -1.47778889	     -5.52462629	     -2.59319378	     -5.53369536	    -45.81710487	     -0.79965933	      4.94211890	    -16.65083190	     17.97058017	    -19.02118863	     -2.02368055	     18.31605684	     -9.47553626	     -0.16537931	      5.70270984	     -7.13536767	     -5.28042401	    -26.02229335	     -2.84306736	     -1.81900341	     -2.07580120	     -9.94879965	      1.46837781	     22.32961290	     89.95437384	      0.00000000	      0.00000000	      9.45026501	     13.17047798	     -3.94405535	     23.42125287	     89.95437384	      0.00000000	      0.00000000
      0.01000000	     18.40552446	      0.98263522	      0.28478574	     -1.23375777	      0.95813008	     -1.47859035	     -4.51103269	     -2.85127282	     -6.15454945	    -44.82034934	     -0.78226267	      5.02437820	    -16.50820273	     17.74620402	    -19.01411769	     -2.16497028	     18.33538122	     -9.66744673	     -0.16872878	      5.88493920	     -7.00884399	     -5.22462783	    -25.84081512	     -2.88325622	     -1.63023822	     -2.11651786	     -9.96767881	      1.50936995	     22.30641251	     89.95437384	      0.00000000	      0.00000000	     10.00371118	     13.19593281	     -3.85402397	     23.95794160	     89.95437384	      0.00000000	      0.00000000
      0.02000000	     18.24706880	      0.91935985	      0.22250899	     -1.22839097	      0.95765172	     -1.47939104	     -3.69641693	     -2.98028802	     -6.88354978	    -43.66976166	     -0.76218112	      5.08484080	    -16.42889487	     17.59612579	    -19.13605341	     -2.19163017	     18.35768979	     -9.78599515	     -0.17079784	      6.25894823	     -6.90429894	     -5.20227021	    -25.72947200	     -2.82402307	     -1.58964125	     -2.09650743	     -9.93769508	      1.49515032	     22.18495542	     89.95437384	      0.00000000	      0.00000000	     10.53982099	     13.24286007	     -3.72610376	     24.43992031	     89.95437384	      0.00000000	      0.00000000
      0.03000000	     18.57024065	      0.40892023	      0.75221509	     -1.22288483	      0.95805748	     -1.48043082	     -3.82592638	     -2.41900467	     -7.99936071	    -41.85758176	     -0.73055262	      5.04304984	    -16.28311422	     17.55557930	    -19.71345952	     -1.51049326	     17.69814256	    -10.08684116	     -0.17604859	      6.94872117	     -6.65731820	     -5.24870385	    -26.17016937	     -2.10482961	     -1.96436659	     -1.94011905	     -9.81542063	      1.08076906	     21.92707461	     89.95437384	      0.00000000	      0.00000000	     10.93296764	     13.30430917	     -3.37400859	     25.15955818	     89.95437384	      0.00000000	      0.00000000
      0.04000000	     18.31489318	      0.37807509	      0.54467232	     -1.21756332	      0.95738935	     -1.48098165	     -2.84200115	     -2.58414523	     -8.61526591	    -40.91099297	     -0.71403153	      5.35072727	    -16.06484791	     17.29288644	    -19.72020420	     -1.60519648	     17.73516987	    -10.25348151	     -0.17895701	      7.19222474	     -6.48646677	     -5.20151738	    -25.96225530	     -2.13350547	     -1.78771344	     -1.98323491	     -9.82456790	      1.07747935	     21.90925477	     89.95437384	      0.00000000	      0.00000000	     11.40412784	     13.32038749	     -3.29245796	     25.67895180	     89.95437384	      0.00000000	      0.00000000
      0.05000000	     18.16904311	      0.19010149	      0.46203119	     -1.21224631	      0.95695580	     -1.48150504	     -2.08444314	     -2.54695078	     -9.36400720	    -39.84214549	     -0.69537662	      5.72222415	    -15.62324957	     17.00099126	    -19.84211174	     -1.48489283	     17.66187848	    -10.42805434	     -0.18200388	      7.65110619	     -6.30935699	     -5.17781007	    -25.87876236	     -1.95570767	     -1.70715763	     -1.93975598	     -9.79331283	      0.97853439	     21.76542750	     89.95437384	      0.00000000	      0.00000000	     11.83798776	     13.32733696	     -3.16897052	     26.22974124	     89.95437384	      0.00000000	      0.00000000
      0.06000000	     18.34251009	     -0.30696001	      0.78519343	     -1.20656849	      0.95704975	     -1.48223985	     -1.98859130	     -2.06811424	    -10.44119212	    -38.34669841	     -0.66927614	      6.09206329	    -14.67866978	     16.51860343	    -20.28075851	     -0.88306118	     17.13998271	    -10.71531522	     -0.18701753	      8.36125152	     -5.90249092	     -5.20552225	    -26.11428576	     -1.31693747	     -1.88772154	     -1.82964137	     -9.68158573	      0.51235319	     21.54643754	     89.95437384	      0.00000000	      0.00000000	     12.12511892	     13.33394029	     -2.88047416	     26.94825903	     89.95437384	      0.00000000	      0.00000000
      0.07000000	     18.28481149	     -0.56829750	      0.69959425	     -1.20091816	      0.95675905	     -1.48264843	     -1.46322566	     -1.92180719	    -11.22205796	    -37.13853766	     -0.64818976	      6.39664827	    -14.01967682	     16.01444124	    -20.58390326	     -0.71810209	     16.90896845	    -10.76531110	     -0.18789012	      8.72194462	     -5.53080361	     -5.21029365	    -26.08432965	     -1.06418818	     -1.76102216	     -1.83879094	     -9.66415912	      0.31147880	     21.48813070	     89.95437384	      0.00000000	      0.00000000	     12.43591365	     13.31603582	     -2.76831948	     27.58239265	     89.95437384	      0.00000000	      0.00000000
      0.08000000	     18.00038721	     -0.63967931	      0.37936652	     -1.19540224	      0.95604491	     -1.48292249	     -0.50537362	     -2.05377774	    -11.89145907	    -36.27964376	     -0.63319923	      6.60861904	    -13.70665769	     15.74144512	    -20.60243220	     -0.81273763	     17.00145423	    -10.89505765	     -0.19015463	      8.88157998	     -5.34555507	     -5.16269420	    -25.82356736	     -1.08371604	     -1.46367196	     -1.89863563	     -9.69146485	      0.33140497	     21.46588282	     89.95437384	      0.00000000	      0.00000000	     12.78517511	     13.24744075	     -2.71182293	     28.11719540	     89.95437384	      0.00000000	      0.00000000
      0.09000000	     18.06987941	     -1.15394212	      0.45140617	     -1.18946877	      0.95597242	     -1.48330562	     -0.35055505	     -1.58054857	    -12.85454826	    -34.79124805	     -0.60722183	      7.12340631	    -12.37649397	     15.12743310	    -21.10169869	     -0.31854535	     16.80868296	    -10.89330528	     -0.19012404	      9.48526681	     -4.95543699	     -5.20553745	    -25.89709445	     -0.51222226	     -1.46762406	     -1.82470791	     -9.67736896	      0.20903588	     21.29065537	     89.95437384	      0.00000000	      0.00000000	     12.91259013	     13.22809134	     -2.51999263	     28.87824776	     89.95437384	      0.00000000	      0.00000000
